<?xml version="1.0" encoding="UTF-8" standalone="no"?><!-- Generator: Gravit.io --><svg xmlns="http://www.w3.org/2000/svg" xmlns:xlink="http://www.w3.org/1999/xlink" style="isolation:isolate" viewBox="0 0 411 731" width="411pt" height="731pt"><defs><clipPath id="_clipPath_h21F5kOrVYZ4RCHtiJ4fjXREFR4DAdOk"><rect width="411" height="731"/></clipPath></defs><g clip-path="url(#_clipPath_h21F5kOrVYZ4RCHtiJ4fjXREFR4DAdOk)"><g><linearGradient id="_lgradient_0" x1="0" y1="0.5" x2="1" y2="0.5" gradientTransform="matrix(543.62,0,0,433.41,-86.62,-76)" gradientUnits="userSpaceOnUse"><stop offset="1.7391304347826086%" stop-opacity="1" style="stop-color:rgb(83,159,189)"/><stop offset="99.56521739130434%" stop-opacity="1" style="stop-color:rgb(83,189,141)"/><stop offset="100%" stop-opacity="1" style="stop-color:rgb(0,0,0)"/></linearGradient><path d=" M -69.04 182.882 C -25.705 237.226 101.361 217.46 191.88 173.294 C 282.399 129.128 409.716 336.191 445.748 356.536 Q 481.78 376.88 402.429 -76 L -48.892 -45.105 Q -112.375 128.538 -69.04 182.882 Z " fill="url(#_lgradient_0)"/><line x1="-184" y1="149" x2="-156" y2="142"/><g opacity="0.06"><path d=" M -428.451 6.089 C -310.421 78.514 -93.148 6.877 6.549 107.089 Q 106.246 207.302 165.549 -66.911 L -286.451 -107.911 Q -546.481 -66.335 -428.451 6.089 Z " fill="rgb(255,255,255)"/></g><g opacity="0.06"><path d=" M 282 6.089 C 400.03 78.514 617.303 6.877 717 107.089 Q 816.697 207.302 876 -66.911 L 424 -107.911 Q 163.97 -66.335 282 6.089 Z " fill="rgb(255,255,255)"/></g><g opacity="0.06"><path d=" M 233.424 303.089 C 351.455 375.514 568.728 303.877 668.424 404.089 Q 768.121 504.302 827.424 230.089 L 375.424 189.089 Q 115.394 230.665 233.424 303.089 Z " fill="rgb(255,255,255)"/></g></g></g></svg>